<svg width="25" height="24" viewBox="0 0 25 24" fill="none" xmlns="http://www.w3.org/2000/svg">
<path fill="blue" d="M2.50201 12.002C2.50318 16.9214 6.08042 21.11 10.939 21.881V14.892H8.40201V12.002H10.942V9.802C10.8285 8.75954 11.1845 7.72059 11.9137 6.96693C12.6428 6.21327 13.6694 5.82301 14.715 5.902C15.4656 5.91412 16.2142 5.98096 16.955 6.102V8.561H15.691C15.2559 8.504 14.8184 8.64772 14.5018 8.95167C14.1852 9.25561 14.0238 9.68688 14.063 10.124V12.002H16.834L16.391 14.893H14.063V21.881C19.3175 21.0506 23.0021 16.2518 22.4475 10.9611C21.8929 5.67037 17.2933 1.73993 11.9808 2.01718C6.66838 2.29443 2.50286 6.68231 2.50201 12.002Z"></path>
</svg>
