<svg width="25" height="24" viewBox="0 0 25 24" fill="none" xmlns="http://www.w3.org/2000/svg">
<path d="M9.59398 21.006C8.9652 20.9718 8.37352 20.6976 7.94098 20.24C7.42358 19.7422 6.96186 19.1896 6.56398 18.592C5.94247 17.702 5.45118 16.7278 5.10498 15.699C4.71284 14.5922 4.50639 13.4282 4.49398 12.254C4.46385 11.1019 4.74949 9.96343 5.31998 8.96199C5.73755 8.24009 6.33317 7.63725 7.04998 7.21099C7.75887 6.78656 8.5678 6.5581 9.39398 6.54899C10.0168 6.58584 10.6288 6.7282 11.204 6.96999C11.6625 7.17175 12.1452 7.31359 12.64 7.39199C13.186 7.2776 13.7195 7.11014 14.233 6.89199C14.8406 6.65471 15.484 6.52184 16.136 6.49899C16.223 6.49899 16.309 6.49899 16.392 6.50899C17.8215 6.55045 19.1511 7.25218 19.992 8.40899C18.655 9.12384 17.834 10.5303 17.869 12.046C17.8558 13.1956 18.3351 14.2959 19.186 15.069C19.5689 15.4338 20.0148 15.7262 20.502 15.932C20.402 16.232 20.287 16.522 20.165 16.814C19.8877 17.4593 19.5456 18.0748 19.144 18.651C18.7648 19.2282 18.3235 19.762 17.828 20.243C17.3756 20.6919 16.7726 20.9567 16.136 20.986C15.5963 20.9621 15.0662 20.8355 14.574 20.613C14.0432 20.3817 13.4728 20.2551 12.894 20.24C12.2989 20.2517 11.7116 20.3776 11.164 20.611C10.691 20.8244 10.1857 20.9572 9.66898 21.004L9.59398 21.006ZM12.744 6.49899C12.669 6.49899 12.594 6.49899 12.519 6.48999C12.5032 6.37096 12.4949 6.25106 12.494 6.13099C12.5267 5.13213 12.9171 4.17823 13.594 3.44299C13.9723 3.02057 14.4309 2.67759 14.943 2.43399C15.4208 2.18799 15.9431 2.04009 16.479 1.99899C16.494 2.12999 16.494 2.25799 16.494 2.37999C16.4798 3.36314 16.1104 4.30797 15.454 5.03999C14.8105 5.90277 13.8185 6.43686 12.744 6.49899Z" fill="white" />
</svg>

